<svg width="374" height="179" viewBox="0 0 374 179" fill="none" xmlns="http://www.w3.org/2000/svg">
<path d="M374 127.587V176.371C374 177.828 372.855 179.009 371.442 179.009H2.55816C1.14519 179.009 0 177.828 0 176.371V134.868C0 133.411 1.14519 132.23 2.55816 132.23H36.652C38.065 132.23 39.2102 131.049 39.2102 129.592V98.3777C39.2102 96.9208 40.3553 95.7399 41.7683 95.7399H50.9238C52.3368 95.7399 53.482 96.9208 53.482 98.3777V110.325C53.482 111.782 54.6272 112.963 56.0402 112.963H58.1645C59.5775 112.963 60.7226 111.782 60.7226 110.325V85.9352C60.7226 84.2415 62.2478 82.9873 63.8493 83.3629L75.1366 86.017C76.3005 86.2908 77.1263 87.3582 77.1263 88.5892V95.1622C77.1263 96.6192 78.2715 97.8 79.6844 97.8C81.0974 97.8 82.2426 96.6192 82.2426 95.1622V62.3822C82.2426 60.9253 83.3878 59.7444 84.8008 59.7444H89.4832C90.8962 59.7444 92.0414 60.9253 92.0414 62.3822V79.9909C92.0414 81.4478 93.1866 82.6287 94.5996 82.6287H96.2975C97.7105 82.6287 98.8557 83.8095 98.8557 85.2665V93.1028C98.8557 94.5598 100.001 95.7407 101.414 95.7407H118.827C120.24 95.7407 121.385 94.5598 121.385 93.1028V34.9782C121.385 33.5212 122.531 32.3403 123.944 32.3403H168.622C170.035 32.3403 171.18 33.5212 171.18 34.9782V56.9677C171.18 58.4247 172.325 59.6056 173.738 59.6056H191.308C192.721 59.6056 193.867 60.7864 193.867 62.2434V67.6502C193.867 69.1071 195.012 70.288 196.425 70.288H211.332C212.745 70.288 213.891 69.1071 213.891 67.6502V30.7592C213.891 29.3022 215.036 28.1214 216.449 28.1214H235.62C237.033 28.1214 238.178 26.9405 238.178 25.4835V2.63783C238.178 1.18086 239.323 0 240.736 0H267.47C268.883 0 270.028 1.18086 270.028 2.63783V93.1028C270.028 94.5598 271.173 95.7407 272.586 95.7407C273.999 95.7407 275.144 94.5598 275.144 93.1028V85.2665C275.144 83.8095 276.29 82.6287 277.702 82.6287H279.4C280.813 82.6287 281.959 81.4478 281.959 79.9909V62.3822C281.959 60.9253 283.104 59.7444 284.517 59.7444H289.199C290.612 59.7444 291.757 60.9253 291.757 62.3822V95.1622C291.757 96.6192 292.903 97.8 294.316 97.8C295.729 97.8 296.874 96.6192 296.874 95.1622V88.5892C296.874 87.3582 297.7 86.2908 298.863 86.017L310.151 83.3629C311.752 82.9866 313.277 84.2415 313.277 85.9352V110.325C313.277 111.782 314.423 112.963 315.836 112.963H317.96C319.373 112.963 320.518 111.782 320.518 110.325V98.3777C320.518 96.9208 321.663 95.7399 323.076 95.7399H332.232C333.645 95.7399 334.79 96.9208 334.79 98.3777V122.311C334.79 123.768 335.935 124.949 337.348 124.949H371.442C372.855 124.949 374 126.13 374 127.587Z" fill="#74B6A8"/>
</svg>
